<svg width="14" height="14" viewBox="0 0 14 14" fill="none" xmlns="http://www.w3.org/2000/svg"><path d="M8.43979 4.69999C8.43979 4.42886 8.65957 4.20907 8.9307 4.20907C9.20182 4.20907 9.42161 4.42886 9.42161 4.69999V10.1423L10.7927 8.77114C10.9844 8.57943 11.2952 8.57943 11.4869 8.77114C11.6786 8.96286 11.6786 9.27362 11.4869 9.46533L9.27779 11.6745C9.08608 11.8662 8.77532 11.8662 8.58361 11.6745L6.3745 9.46533C6.18279 9.27362 6.18279 8.96286 6.3745 8.77114C6.56621 8.57943 6.87697 8.57943 7.06868 8.77114L8.43979 10.1423V4.69999ZM4.02157 9.11824V3.67597L2.65047 5.04708C2.45875 5.2388 2.148 5.2388 1.95629 5.04708C1.76457 4.85537 1.76457 4.54461 1.95629 4.35289L4.16539 2.14377L4.20279 2.11021C4.3956 1.95295 4.67984 1.96404 4.85957 2.14377L7.06868 4.35289C7.2604 4.54461 7.2604 4.85537 7.06868 5.04708C6.87697 5.2388 6.56621 5.2388 6.3745 5.04708L5.0034 3.67597V9.11824C5.0034 9.38936 4.78361 9.60915 4.51248 9.60915C4.24136 9.60915 4.02157 9.38936 4.02157 9.11824Z" fill="#2F3037"></path></svg>