<svg width="14" height="14" viewBox="0 0 14 14" fill="none" xmlns="http://www.w3.org/2000/svg"><path fill-rule="evenodd" clip-rule="evenodd" d="M2.97474 12.0444V3.2726C2.97474 2.36886 3.70736 1.63623 4.6111 1.63623H9.75396C10.6577 1.63623 11.3903 2.36886 11.3903 3.27259V12.0444H11.5656C11.7051 12.0444 11.8389 12.0996 11.9376 12.1977C12.0362 12.2958 12.0916 12.4289 12.0916 12.5676C12.0916 12.7064 12.0362 12.8394 11.9376 12.9375C11.8389 13.0357 11.7051 13.0908 11.5656 13.0908H9.1111C8.9716 13.0908 8.83782 13.0357 8.73918 12.9375C8.64054 12.8394 8.58513 12.7064 8.58513 12.5676V10.8237C8.58513 10.685 8.52971 10.5519 8.43107 10.4538C8.33243 10.3557 8.19865 10.3006 8.05915 10.3006H6.30591C6.16641 10.3006 6.03262 10.3557 5.93399 10.4538C5.83535 10.5519 5.77993 10.685 5.77993 10.8237V12.5676C5.77993 12.7064 5.72452 12.8394 5.62588 12.9375C5.52724 13.0357 5.39345 13.0908 5.25396 13.0908H2.79941C2.65991 13.0908 2.52613 13.0357 2.42749 12.9375C2.32885 12.8394 2.27344 12.7064 2.27344 12.5676C2.27344 12.4289 2.32885 12.2958 2.42749 12.1977C2.52613 12.0996 2.65991 12.0444 2.79941 12.0444H2.97474ZM5.18134 4.12475C5.11558 4.19016 5.07863 4.27887 5.07863 4.37137V5.06892C5.07863 5.16142 5.11558 5.25014 5.18134 5.31554C5.24709 5.38095 5.33628 5.4177 5.42928 5.4177H6.13058C6.22358 5.4177 6.31277 5.38095 6.37853 5.31554C6.44429 5.25014 6.48123 5.16142 6.48123 5.06892V4.37137C6.48123 4.27887 6.44429 4.19016 6.37853 4.12475C6.31277 4.05934 6.22358 4.02259 6.13058 4.02259H5.42928C5.33628 4.02259 5.24709 4.05934 5.18134 4.12475ZM5.18134 6.91496C5.24709 6.84955 5.33628 6.8128 5.42928 6.8128H6.13058C6.22358 6.8128 6.31277 6.84955 6.37853 6.91496C6.44429 6.98037 6.48123 7.06908 6.48123 7.16158V7.85913C6.48123 7.95163 6.44429 8.04035 6.37853 8.10575C6.31277 8.17116 6.22358 8.20791 6.13058 8.20791H5.42928C5.33628 8.20791 5.24709 8.17116 5.18134 8.10575C5.11558 8.04035 5.07863 7.95163 5.07863 7.85913V7.16158C5.07863 7.06908 5.11558 6.98037 5.18134 6.91496ZM7.98653 4.12475C7.92077 4.19016 7.88383 4.27887 7.88383 4.37137V5.06892C7.88383 5.16142 7.92077 5.25014 7.98653 5.31554C8.05229 5.38095 8.14148 5.4177 8.23448 5.4177H8.93577C9.02877 5.4177 9.11796 5.38095 9.18372 5.31554C9.24948 5.25014 9.28642 5.16142 9.28642 5.06892V4.37137C9.28642 4.27887 9.24948 4.19016 9.18372 4.12475C9.11796 4.05934 9.02877 4.02259 8.93577 4.02259H8.23448C8.14148 4.02259 8.05229 4.05934 7.98653 4.12475ZM7.98653 6.91496C8.05229 6.84955 8.14148 6.8128 8.23448 6.8128H8.93577C9.02877 6.8128 9.11796 6.84955 9.18372 6.91496C9.24948 6.98037 9.28642 7.06908 9.28642 7.16158V7.85913C9.28642 7.95163 9.24948 8.04035 9.18372 8.10575C9.11796 8.17116 9.02877 8.20791 8.93577 8.20791H8.23448C8.14148 8.20791 8.05229 8.17116 7.98653 8.10575C7.92077 8.04035 7.88383 7.95163 7.88383 7.85913V7.16158C7.88383 7.06908 7.92077 6.98037 7.98653 6.91496Z" fill="#6a7282"></path></svg>