<svg width="14" height="14" viewBox="0 0 14 14" fill="none" xmlns="http://www.w3.org/2000/svg"><path d="M1.49219 4.86366C1.49219 3.95992 2.22481 3.22729 3.12855 3.22729H10.4922C11.3959 3.22729 12.1286 3.95992 12.1286 4.86366L1.49219 4.86366Z" fill="#747686"></path><path fill-rule="evenodd" clip-rule="evenodd" d="M1.49219 6.09093H12.1286V9.77275C12.1286 10.6765 11.3959 11.4091 10.4922 11.4091H3.12855C2.22481 11.4091 1.49219 10.6765 1.49219 9.77275V6.09093ZM3.29219 8.13639C3.20181 8.13639 3.12855 8.20965 3.12855 8.30002V9.60911C3.12855 9.69949 3.20181 9.77275 3.29219 9.77275H5.41946C5.50983 9.77275 5.5831 9.69949 5.5831 9.60911V8.30002C5.5831 8.20965 5.50983 8.13639 5.41946 8.13639H3.29219Z" fill="#747686"></path></svg>