<svg width="14" height="14" viewBox="0 0 14 14" fill="none" xmlns="http://www.w3.org/2000/svg"><path fill-rule="evenodd" clip-rule="evenodd" d="M5.45256 2.89307C5.47731 2.76954 5.54403 2.65837 5.64142 2.57843C5.7388 2.4985 5.86084 2.45472 5.98683 2.45453H7.27465C7.40064 2.45472 7.52268 2.4985 7.62007 2.57843C7.71745 2.65837 7.78418 2.76954 7.80892 2.89307L7.98892 3.79389C8.3702 3.93953 8.72529 4.14489 9.04192 4.40262L9.91329 4.10807C10.0326 4.06792 10.1622 4.07025 10.28 4.11469C10.3978 4.15913 10.4966 4.24293 10.5597 4.35189L11.2036 5.46626C11.2668 5.57531 11.2903 5.70292 11.27 5.82735C11.2497 5.95177 11.1869 6.06531 11.0923 6.14862L10.4009 6.75571C10.4656 7.15826 10.4656 7.56898 10.4009 7.97153L11.0923 8.57862C11.1868 8.66178 11.2497 8.77512 11.2701 8.89936C11.2905 9.02361 11.2673 9.15111 11.2044 9.26017L10.5605 10.3753C10.4974 10.4845 10.3984 10.5684 10.2804 10.6129C10.1625 10.6573 10.0327 10.6595 9.91329 10.6192L9.04192 10.3246C8.72611 10.5823 8.37101 10.7877 7.98974 10.9333L7.80974 11.8342C7.78511 11.9579 7.71831 12.0693 7.62072 12.1493C7.52314 12.2292 7.40082 12.2729 7.27465 12.2727H5.98683C5.8608 12.2727 5.73868 12.229 5.64126 12.149C5.54385 12.069 5.47716 11.9578 5.45256 11.8342L5.27256 10.9333C4.89127 10.788 4.53576 10.5825 4.21956 10.3246L3.3482 10.6192C3.22888 10.6595 3.09928 10.6572 2.98144 10.6128C2.8636 10.5683 2.7648 10.4844 2.70183 10.3753L2.05792 9.2618C1.99483 9.15271 1.97144 9.02514 1.99172 8.90075C2.012 8.77637 2.07471 8.66284 2.1692 8.57944L2.86056 7.97153C2.79618 7.56909 2.79618 7.15897 2.86056 6.75653L2.1692 6.14944C2.07478 6.06619 2.01204 5.95286 1.99161 5.82865C1.97118 5.70445 1.99432 5.57699 2.05711 5.46789L2.70102 4.35271C2.76412 4.24357 2.86307 4.15964 2.98105 4.1152C3.09903 4.07075 3.22876 4.06852 3.3482 4.10889L4.21956 4.40344C4.5362 4.14571 4.89129 3.94035 5.27256 3.79471L5.45256 2.89307ZM6.63074 8.99998C7.06473 8.99998 7.48095 8.82758 7.78783 8.5207C8.0947 8.21383 8.26711 7.79761 8.26711 7.36362C8.26711 6.92963 8.0947 6.51341 7.78783 6.20654C7.48095 5.89966 7.06473 5.72726 6.63074 5.72726C6.19675 5.72726 5.78054 5.89966 5.47366 6.20654C5.16678 6.51341 4.99438 6.92963 4.99438 7.36362C4.99438 7.79761 5.16678 8.21383 5.47366 8.5207C5.78054 8.82758 6.19675 8.99998 6.63074 8.99998Z" fill="#2F3037"></path></svg>