<svg width="14" height="14" viewBox="0 0 14 14" fill="none" xmlns="http://www.w3.org/2000/svg"><path d="M8.13494 4.75364C8.13494 5.98373 7.13776 7.42637 5.90767 7.42637C4.67758 7.42637 3.6804 5.98373 3.6804 4.75364C3.6804 3.52355 4.67758 2.52637 5.90767 2.52637C7.13776 2.52637 8.13494 3.52355 8.13494 4.75364Z"     fill="#6a7282"></path><path d="M1.45312 11.0545C1.45312 10.4022 1.55121 9.57896 2.10451 8.8922C2.56448 8.32127 3.11026 7.97904 3.6804 7.87182C4.55215 7.70788 5.02064 8.31728 5.90767 8.31728C6.7947 8.31728 7.26319 7.70788 8.13494 7.87182C8.70509 7.97904 9.25086 8.32127 9.71083 8.8922C10.2641 9.57896 10.3622 10.4022 10.3622 11.0545C10.3622 11.4846 10.0144 11.8332 9.58437 11.8332C8.65021 11.8332 7.06471 11.8332 5.90767 11.8332C4.75063 11.8332 3.16513 11.8332 2.23097 11.8332C1.80092 11.8332 1.45312 11.4846 1.45312 11.0545Z"     fill="#6a7282"></path><path d="M7.98351 6.94376C7.912 7.03503 7.83502 7.12401 7.75288 7.20934C7.90803 7.20305 8.07439 7.21292 8.25256 7.24642C8.4232 7.27851 8.58768 7.33218 8.74387 7.39944C9.83658 7.1966 10.6804 5.88519 10.6804 4.75364C10.6804 3.52355 9.68321 2.52637 8.45312 2.52637C8.23182 2.52637 8.01806 2.55864 7.81628 2.61874C8.40241 3.14311 8.77131 3.90529 8.77131 4.75364C8.77131 5.52692 8.46395 6.33057 7.98351 6.94376Z"     fill="#6a7282"></path><path d="M10.7655 11.8332C10.9129 11.6097 10.9986 11.342 10.9986 11.0545C10.9986 10.2842 10.8742 9.24727 10.1655 8.44694C9.99273 8.25187 9.85633 8.14324 9.67613 7.99337C9.97919 7.88042 10.2892 7.79825 10.6804 7.87182C11.2505 7.97904 11.7963 8.32127 12.2563 8.8922C12.8096 9.57896 12.9077 10.4022 12.9077 11.0545C12.9077 11.4846 12.5599 11.8332 12.1298 11.8332H10.7655Z"     fill="#6a7282"></path></svg>