<svg className="shrink-0" width="14" height="14" viewBox="0 0 14 14" fill="none" xmlns="http://www.w3.org/2000/svg"><path d="M7.42329 3.34142C7.42329 3.00252 7.14855 2.72778 6.80965 2.72778C6.47075 2.72778 6.19601 3.00252 6.19601 3.34142V6.20503H3.33239C2.99348 6.20503 2.71875 6.47976 2.71875 6.81866C2.71875 7.15757 2.99348 7.4323 3.33239 7.4323H6.19601L6.19602 10.2959C6.19602 10.6348 6.47076 10.9096 6.80966 10.9096C7.14856 10.9096 7.4233 10.6348 7.4233 10.2959L7.42329 7.4323H10.2869C10.6258 7.4323 10.9006 7.15757 10.9006 6.81866C10.9006 6.47976 10.6258 6.20503 10.2869 6.20503H7.42329V3.34142Z" fill="#2F3037"></path></svg>