<svg width="14" height="14" viewBox="0 0 14 14" fill="none" xmlns="http://www.w3.org/2000/svg">
   <path fill-rule="evenodd" clip-rule="evenodd" d="M11.8852 3.01669C11.9224 3.03408 11.9567 3.05702 11.9866 3.08481C12.0592 3.15206 12.1009 3.24277 12.0899 3.33842V6.65597C12.0899 7.86437 11.7439 9.03655 11.0857 10.0484C10.2766 11.2925 7.99498 12.5345 7.35257 12.8674C7.24526 12.923 7.11988 12.923 7.01256 12.8674C6.36979 12.5346 4.0867 11.2926 3.27761 10.0484C2.6223 9.03663 2.27344 7.86441 2.27344 6.65597V3.33842C2.27344 3.24526 2.31548 3.15206 2.38776 3.08481C2.42058 3.0544 2.45856 3.0298 2.49987 3.01197C2.54965 2.99034 2.6046 2.97868 2.66139 2.97868H2.68352C4.45216 2.97868 6.06444 2.44305 6.89566 1.57618C6.93475 1.5358 6.98158 1.50452 7.03321 1.4838C7.08079 1.46467 7.13241 1.45453 7.18589 1.45453C7.29762 1.45453 7.40346 1.49857 7.47611 1.57618C8.30733 2.44043 9.92256 2.97868 11.6883 2.97868H11.7104C11.7727 2.97868 11.8321 2.99205 11.8852 3.01669ZM9.6805 5.55082C9.90941 5.30091 9.89238 4.91275 9.64246 4.68384C9.39255 4.45494 9.00439 4.47197 8.77548 4.72188C8.03897 5.526 7.66045 6.04998 7.12848 7.00186C6.94993 7.32134 6.76716 7.7189 6.61603 8.06943L5.60058 6.89907C5.37848 6.64309 4.99092 6.61563 4.73493 6.83773C4.47895 7.05983 4.45149 7.44739 4.67359 7.70337L6.34471 9.62941C6.48642 9.79274 6.70364 9.86942 6.91648 9.83127C7.12931 9.79312 7.30653 9.64529 7.3827 9.44292L7.38351 9.44076L7.38706 9.43142L7.40142 9.39381C7.41411 9.36074 7.43285 9.31227 7.45664 9.25169C7.50428 9.1304 7.57193 8.96125 7.65173 8.77041C7.81387 8.38264 8.01688 7.92789 8.1998 7.60058C8.68543 6.73162 9.00814 6.28489 9.6805 5.55082Z" fill="#6a7282">
   </path>
</svg>