<svg width="14" height="14" viewBox="0 0 14 14" fill="none" xmlns="http://www.w3.org/2000/svg">
  <path
    fill-rule="evenodd"
    clip-rule="evenodd"
    d="M12.9077 7.36363C12.9077 10.5267 10.3435 13.0909 7.1804 13.0909C4.01731 13.0909 1.45312 10.5267 1.45312 7.36363C1.45312 4.20054 4.01731 1.63635 7.1804 1.63635C10.3435 1.63635 12.9077 4.20054 12.9077 7.36363ZM10.7924 9.73121C10.9188 9.93562 10.8805 10.1962 10.7246 10.3791C9.87111 11.3814 8.59999 12.017 7.1804 12.017C5.76081 12.017 4.48969 11.3814 3.63615 10.3791C3.48031 10.1962 3.44201 9.93562 3.56844 9.73121C3.63922 9.6168 3.72236 9.50937 3.81867 9.41102C4.19464 9.02713 4.70768 8.60385 5.21165 8.50908C5.63253 8.42993 5.94707 8.55471 6.27363 8.68426C6.54496 8.7919 6.82458 8.90283 7.1804 8.90283C7.53621 8.90283 7.81584 8.7919 8.08716 8.68426C8.41373 8.55471 8.72827 8.42993 9.14915 8.50908C9.65311 8.60385 10.1662 9.02713 10.5421 9.41102C10.6384 9.50937 10.7216 9.6168 10.7924 9.73121ZM7.1804 8.11533C8.26771 8.11533 9.14915 6.84014 9.14915 5.75283C9.14915 4.66552 8.26771 3.78408 7.1804 3.78408C6.09309 3.78408 5.21165 4.66552 5.21165 5.75283C5.21165 6.84014 6.09309 8.11533 7.1804 8.11533Z"
    fill="#6a7282"
  />
</svg>
