<svg width="17" height="20" viewBox="0 0 21 24" fill="none" xmlns="http://www.w3.org/2000/svg">
  <path d="M4.22115 21.4959L1.90771 19.2096L9.44501 11.6868H10.9375L18.4749 19.2096L16.1615 21.4959L11.8331 17.292V23.266H8.54951V17.292L4.22115 21.4959Z" fill="#FFF"/>
  <path d="M0.266113 8.60023V11.8454H4.74372L8.99745 7.56769H11.3855L15.6392 11.8454H20.2661V8.60023H14.2213L18.4751 4.3963L16.1616 2.03619L11.8333 6.24011V0.266113H8.5497V6.24011L4.22133 2.03619L1.9079 4.32255L6.16162 8.60023H0.266113Z" fill="#FFF"/>
  <path d="M4.22115 21.4959L1.90771 19.2096L9.44501 11.6868H10.9375L18.4749 19.2096L16.1615 21.4959L11.8331 17.292V23.266H8.54951V17.292L4.22115 21.4959Z" stroke="#FFF" stroke-width="0.53202"/>
  <path d="M0.266113 8.60023V11.8454H4.74372L8.99745 7.56769H11.3855L15.6392 11.8454H20.2661V8.60023H14.2213L18.4751 4.3963L16.1616 2.03619L11.8333 6.24011V0.266113H8.5497V6.24011L4.22133 2.03619L1.9079 4.32255L6.16162 8.60023H0.266113Z" stroke="#FFF" stroke-width="0.53202"/>
</svg>
